<svg xmlns="http://www.w3.org/2000/svg" width="32" height="32" fill="#000000" viewBox="0 0 256 256"><path d="M208,52H182.42L170,37.28A12,12,0,0,0,160.24,32H95.76A12,12,0,0,0,86,37.28L73.58,52H48A28,28,0,0,0,20,80V192a28,28,0,0,0,28,28H208a28,28,0,0,0,28-28V80A28,28,0,0,0,208,52Zm4,140a4,4,0,0,1-4,4H48a4,4,0,0,1-4-4V80a4,4,0,0,1,4-4H80a12,12,0,0,0,9.76-5A12,12,0,0,1,99.52,66l12.42-10h32.12L156.48,66a12,12,0,0,1,9.76,5,12,12,0,0,0,9.76,5h32a4,4,0,0,1,4,4ZM128,92a44,44,0,1,0,44,44A44.05,44.05,0,0,0,128,92Zm0,64a20,20,0,1,1,20-20A20,20,0,0,1,128,156Z"></path></svg>