<svg xmlns="http://www.w3.org/2000/svg" width="32" height="32" fill="#000000" viewBox="0 0 256 256"><path d="M232,120H209.64A84.12,84.12,0,0,0,136,46.36V24a8,8,0,0,0-16,0V46.36A84.12,84.12,0,0,0,46.36,120H24a8,8,0,0,0,0,16H46.36A84.12,84.12,0,0,0,120,209.64V232a8,8,0,0,0,16,0V209.64A84.12,84.12,0,0,0,209.64,136H232a8,8,0,0,0,0-16Zm-96,73.57V176a8,8,0,0,0-16,0v17.57A68.14,68.14,0,0,1,62.43,136H80a8,8,0,0,0,0-16H62.43A68.14,68.14,0,0,1,120,62.43V80a8,8,0,0,0,16,0V62.43A68.14,68.14,0,0,1,193.57,120H176a8,8,0,0,0,0,16h17.57A68.14,68.14,0,0,1,136,193.57ZM128,112a16,16,0,1,0,16,16A16,16,0,0,0,128,112Z"></path></svg>