<svg xmlns="http://www.w3.org/2000/svg" width="32" height="32" fill="#000000" viewBox="0 0 256 256"><path d="M200,36a12,12,0,0,1,12-12h16V8a12,12,0,0,1,24,0V24h16a12,12,0,0,1,0,24H252V64a12,12,0,0,1-24,0V48H212A12,12,0,0,1,200,36ZM252,152H236V136a12,12,0,0,0-24,0v16H196a12,12,0,0,0,0,24h16v16a12,12,0,0,0,24,0V176h16a12,12,0,0,0,0-24ZM148.24,45.83l-24,56a12,12,0,0,1-6.44,6.44l-56,24a12,12,0,0,0,0,22.2l56,24a12,12,0,0,1,6.44,6.44l24,56a12,12,0,0,0,22.2,0l24-56a12,12,0,0,1,6.44-6.44l56-24a12,12,0,0,0,0-22.2l-56-24a12,12,0,0,1-6.44-6.44l-24-56a12,12,0,0,0-22.2,0Z"></path></svg>