<svg xmlns="http://www.w3.org/2000/svg" width="32" height="32" fill="#000000" viewBox="0 0 256 256"><path d="M256,136a8,8,0,0,1-8,8H232v16a8,8,0,0,1-16,0V144H200a8,8,0,0,1,0-16h16V112a8,8,0,0,1,16,0v16h16A8,8,0,0,1,256,136ZM144,157.68a68,68,0,1,0-71.9,0c-20.65,6.76-39.16,19.69-54.08,38.17a12,12,0,1,0,18.77,14.93C55.18,188.14,79.37,176,108,176s52.82,12.14,71.21,34.78a12,12,0,1,0,18.77-14.93C183.07,177.37,164.55,164.44,144,157.68ZM108,144a44,44,0,1,1,44-44A44.05,44.05,0,0,1,108,144Z"></path></svg>